<svg width="81.000000" height="24.000000" viewBox="0 0 81 24" fill="none" xmlns="http://www.w3.org/2000/svg" xmlns:xlink="http://www.w3.org/1999/xlink">
	<desc>
			Created with Pixso.
	</desc>
	<defs>
		<clipPath id="clip1_393">
			<rect id="Frame" width="81.000000" height="24.000000" fill="white" fill-opacity="0"/>
		</clipPath>
	</defs>
	<rect id="Frame" width="81.000000" height="24.000000" fill="#FFFFFF" fill-opacity="0"/>
	<g clip-path="url(#clip1_393)">
		<path id="Vector" d="M70.04 0L9.78 0C9.37 0 9.01 0.05 8.6 0.11C8.19 0.17 7.84 0.29 7.49 0.47C7.14 0.64 6.84 0.88 6.55 1.17C6.25 1.46 6.02 1.76 5.84 2.11C5.67 2.46 5.55 2.84 5.49 3.22C5.43 3.64 5.37 4.05 5.37 4.4L5.37 19.02C5.37 19.44 5.43 19.79 5.49 20.2C5.55 20.61 5.67 20.96 5.84 21.31C6.02 21.73 6.25 22.02 6.55 22.31C6.84 22.61 7.14 22.84 7.49 23.02C7.84 23.2 8.21 23.32 8.6 23.37C9.01 23.43 9.37 23.49 9.78 23.49L71.21 23.49C71.62 23.49 71.98 23.43 72.39 23.37C72.78 23.32 73.15 23.2 73.5 23.02C73.86 22.84 74.15 22.61 74.44 22.31C74.74 22.02 74.97 21.73 75.15 21.37C75.33 21.02 75.44 20.65 75.5 20.26C75.56 19.85 75.62 19.49 75.62 19.08L75.62 18.55L75.62 5.57L75.62 4.93L75.62 4.4C75.62 3.99 75.56 3.64 75.5 3.22C75.44 2.84 75.33 2.46 75.15 2.11C74.97 1.76 74.74 1.46 74.44 1.17C74.15 0.88 73.86 0.64 73.5 0.47C73.15 0.29 72.78 0.17 72.39 0.11C71.98 0.05 71.62 0 71.21 0L70.04 0Z" fill="#B7B7B7" fill-opacity="1.000000" fill-rule="nonzero"/>
		<path id="Vector" d="M10.31 22.96L9.78 22.96C9.43 22.96 9.07 22.96 8.66 22.84C8.32 22.78 7.99 22.68 7.66 22.55C7.37 22.37 7.08 22.2 6.84 21.96C6.61 21.73 6.37 21.43 6.25 21.14C6.08 20.85 6.02 20.55 5.96 20.14C5.9 19.73 5.84 19.32 5.84 19.02L5.84 4.93L5.84 4.4C5.84 4.11 5.84 3.7 5.96 3.28C6.08 2.99 6.14 2.64 6.31 2.34C6.49 2.05 6.66 1.76 6.9 1.52C7.13 1.29 7.43 1.11 7.72 0.94C8.02 0.76 8.37 0.7 8.72 0.64C9.07 0.52 9.48 0.52 9.78 0.52L71.21 0.52C71.51 0.52 71.92 0.52 72.33 0.64C72.68 0.7 72.97 0.82 73.33 0.94C73.62 1.11 73.91 1.29 74.15 1.52C74.38 1.76 74.62 2.05 74.74 2.34C74.91 2.64 74.97 2.99 75.03 3.28C75.09 3.64 75.15 4.05 75.15 4.4L75.15 19.03C75.15 19.38 75.09 19.73 75.03 20.14C74.97 20.48 74.87 20.82 74.74 21.14C74.56 21.43 74.38 21.73 74.15 21.96C73.91 22.2 73.62 22.43 73.33 22.55C73.03 22.73 72.74 22.78 72.33 22.84C71.98 22.9 71.56 22.9 71.21 22.96L10.31 22.96Z" fill="#000001" fill-opacity="1.000000" fill-rule="nonzero"/>
		<path id="Vector" d="M19.94 11.92C19.94 10.27 21.29 9.51 21.35 9.45C20.58 8.33 19.41 8.22 19 8.16C18 8.04 17.06 8.75 16.53 8.75C16 8.75 15.24 8.16 14.42 8.16C13.36 8.16 12.36 8.8 11.78 9.74C10.66 11.68 11.48 14.62 12.6 16.2C13.13 16.97 13.77 17.85 14.59 17.85C15.42 17.79 15.71 17.32 16.71 17.32C17.71 17.32 17.94 17.85 18.82 17.85C19.7 17.85 20.23 17.09 20.76 16.26C21.41 15.38 21.64 14.5 21.64 14.44C21.64 14.5 19.94 13.86 19.94 11.92ZM18.29 7.16C18.71 6.63 19.06 5.87 18.94 5.1C18.29 5.1 17.53 5.52 17.06 6.1C16.65 6.57 16.3 7.34 16.41 8.1C17.12 8.1 17.88 7.69 18.29 7.16ZM30.22 15.91L27.46 15.91L26.81 17.91L25.64 17.91L28.28 10.62L29.45 10.62L32.1 17.91L30.92 17.91L30.22 15.91ZM27.75 15.03L29.98 15.03L28.87 11.8L28.81 11.8L27.75 15.03ZM37.79 15.26C37.79 16.91 36.91 17.97 35.56 17.97C34.8 17.97 34.21 17.61 33.92 17.03L33.92 19.67L32.8 19.67L32.8 12.62L33.86 12.62L33.86 13.5C34.15 12.91 34.8 12.56 35.56 12.56C36.85 12.5 37.79 13.62 37.79 15.26ZM36.62 15.26C36.62 14.21 36.09 13.5 35.21 13.5C34.39 13.5 33.8 14.21 33.8 15.26C33.8 16.32 34.39 17.03 35.21 17.03C36.09 17.03 36.62 16.32 36.62 15.26ZM43.61 15.26C43.61 16.91 42.73 17.97 41.38 17.97C40.61 17.97 40.02 17.61 39.73 17.03L39.73 19.67L38.62 19.67L38.62 12.62L39.67 12.62L39.67 13.5C39.97 12.91 40.61 12.56 41.38 12.56C42.73 12.5 43.61 13.62 43.61 15.26ZM42.49 15.26C42.49 14.21 41.96 13.5 41.08 13.5C40.26 13.5 39.67 14.21 39.67 15.26C39.67 16.32 40.26 17.03 41.08 17.03C41.96 17.03 42.49 16.32 42.49 15.26ZM47.48 15.85C47.54 16.56 48.25 17.03 49.25 17.03C50.19 17.03 50.83 16.56 50.83 15.91C50.83 15.32 50.42 15.03 49.48 14.79L48.54 14.56C47.19 14.21 46.6 13.62 46.6 12.62C46.6 11.39 47.72 10.51 49.25 10.51C50.77 10.51 51.83 11.39 51.89 12.62L50.77 12.62C50.71 11.92 50.13 11.45 49.25 11.45C48.37 11.45 47.78 11.92 47.78 12.56C47.78 13.09 48.19 13.38 49.13 13.62L49.95 13.8C51.42 14.15 52.07 14.74 52.07 15.79C52.07 17.14 50.95 18.02 49.25 18.02C47.6 18.02 46.54 17.2 46.49 15.85L47.48 15.85ZM54.3 11.33L54.3 12.56L55.3 12.56L55.3 13.44L54.3 13.44L54.3 16.38C54.3 16.85 54.47 17.03 54.94 17.03L55.3 17.03L55.3 17.91C55.18 17.97 54.94 17.97 54.71 17.97C53.65 17.97 53.24 17.56 53.24 16.56L53.24 13.5L52.48 13.5L52.48 12.62L53.24 12.62L53.24 11.39L54.3 11.39L54.3 11.33ZM55.94 15.26C55.94 13.62 56.94 12.56 58.47 12.56C59.99 12.56 60.99 13.62 60.99 15.26C60.99 16.97 59.99 17.97 58.47 17.97C56.88 17.97 55.94 16.91 55.94 15.26ZM59.88 15.26C59.88 14.09 59.35 13.44 58.47 13.44C57.59 13.44 57.06 14.09 57.06 15.26C57.06 16.44 57.59 17.08 58.47 17.08C59.35 17.08 59.88 16.38 59.88 15.26ZM61.87 12.56L62.93 12.56L62.93 13.5C63.11 12.91 63.58 12.56 64.22 12.56C64.4 12.56 64.52 12.56 64.58 12.62L64.58 13.62C64.52 13.56 64.28 13.56 64.11 13.56C63.4 13.56 62.99 14.03 62.99 14.79L62.99 17.97L61.87 17.97L61.87 12.56ZM69.63 16.32C69.51 17.26 68.51 17.97 67.34 17.97C65.81 17.97 64.81 16.91 64.81 15.26C64.81 13.62 65.75 12.5 67.28 12.5C68.75 12.5 69.68 13.5 69.68 15.15L69.68 15.5L65.93 15.5L65.93 15.56C65.93 16.44 66.51 17.09 67.34 17.09C67.92 17.09 68.39 16.79 68.57 16.32L69.63 16.32L69.63 16.32ZM65.93 14.74L68.57 14.74C68.57 13.91 68.04 13.38 67.28 13.38C66.51 13.38 65.98 13.97 65.93 14.74ZM27.57 5.11C28.63 5.11 29.22 5.75 29.22 6.87C29.22 7.98 28.63 8.63 27.57 8.63L26.28 8.63L26.28 5.11L27.57 5.11ZM26.87 8.16L27.52 8.16C28.22 8.16 28.69 7.69 28.69 6.93C28.69 6.16 28.28 5.69 27.52 5.69L26.87 5.69L26.87 8.16ZM29.86 7.28C29.86 6.4 30.33 5.93 31.1 5.93C31.86 5.93 32.33 6.46 32.33 7.28C32.33 8.16 31.86 8.63 31.1 8.63C30.33 8.69 29.86 8.16 29.86 7.28ZM31.8 7.28C31.8 6.69 31.57 6.4 31.1 6.4C30.63 6.4 30.39 6.75 30.39 7.28C30.39 7.87 30.63 8.22 31.1 8.22C31.57 8.22 31.8 7.87 31.8 7.28ZM35.68 8.63L35.15 8.63L34.62 6.69L34.56 6.69L34.03 8.63L33.51 8.63L32.8 5.99L33.33 5.99L33.8 7.98L33.86 7.98L34.39 5.99L34.92 5.99L35.44 7.98L35.5 7.98L35.97 5.99L36.5 5.99L35.68 8.63L35.68 8.63ZM37.03 5.99L37.56 5.99L37.56 6.4L37.62 6.4C37.73 6.1 38.03 5.93 38.38 5.93C38.97 5.93 39.32 6.28 39.32 6.93L39.32 8.63L38.79 8.63L38.79 7.04C38.79 6.63 38.62 6.4 38.2 6.4C37.79 6.4 37.56 6.63 37.56 7.04L37.56 8.57L37.03 8.57L37.03 5.99ZM40.08 4.93L40.61 4.93L40.61 8.63L40.08 8.63L40.08 4.93ZM41.32 7.28C41.32 6.4 41.79 5.93 42.55 5.93C43.31 5.93 43.78 6.46 43.78 7.28C43.78 8.16 43.31 8.63 42.55 8.63C41.79 8.69 41.32 8.16 41.32 7.28ZM43.31 7.28C43.31 6.69 43.08 6.4 42.61 6.4C42.14 6.4 41.9 6.75 41.9 7.28C41.9 7.87 42.14 8.22 42.61 8.22C43.02 8.22 43.31 7.87 43.31 7.28ZM44.37 7.87C44.37 7.4 44.72 7.1 45.37 7.1L46.07 7.04L46.07 6.81C46.07 6.52 45.9 6.4 45.55 6.4C45.25 6.4 45.08 6.51 45.02 6.69L44.49 6.69C44.55 6.22 44.96 5.93 45.55 5.93C46.19 5.93 46.6 6.28 46.6 6.81L46.6 8.63L46.07 8.63L46.07 8.28L46.02 8.28C45.84 8.57 45.55 8.69 45.19 8.69C45.09 8.69 44.98 8.67 44.88 8.63C44.77 8.59 44.68 8.53 44.61 8.45C44.53 8.38 44.47 8.28 44.43 8.18C44.39 8.08 44.37 7.97 44.37 7.87ZM46.07 7.63L46.07 7.4L45.43 7.45C45.08 7.45 44.9 7.63 44.9 7.81C44.9 8.04 45.13 8.16 45.37 8.16C45.78 8.22 46.07 7.98 46.07 7.63ZM47.25 7.28C47.25 6.46 47.66 5.93 48.37 5.93C48.72 5.93 49.01 6.1 49.19 6.4L49.25 6.4L49.25 4.93L49.77 4.93L49.77 8.63L49.25 8.63L49.25 8.22L49.19 8.22C49.1 8.36 48.98 8.48 48.84 8.56C48.7 8.65 48.53 8.69 48.37 8.69C47.72 8.69 47.25 8.16 47.25 7.28ZM47.84 7.28C47.84 7.87 48.13 8.16 48.54 8.16C48.95 8.16 49.25 7.81 49.25 7.28C49.25 6.75 48.95 6.4 48.54 6.4C48.07 6.4 47.84 6.75 47.84 7.28ZM51.89 7.28C51.89 6.4 52.36 5.93 53.12 5.93C53.89 5.93 54.36 6.46 54.36 7.28C54.36 8.16 53.89 8.63 53.12 8.63C52.36 8.69 51.89 8.16 51.89 7.28ZM53.89 7.28C53.89 6.69 53.65 6.4 53.18 6.4C52.71 6.4 52.48 6.75 52.48 7.28C52.48 7.87 52.71 8.22 53.18 8.22C53.59 8.22 53.89 7.87 53.89 7.28ZM55.12 5.99L55.65 5.99L55.65 6.4L55.71 6.4C55.82 6.1 56.12 5.93 56.47 5.93C57.06 5.93 57.41 6.28 57.41 6.93L57.41 8.63L56.88 8.63L56.88 7.04C56.88 6.63 56.71 6.4 56.29 6.4C55.88 6.4 55.65 6.63 55.65 7.04L55.65 8.57L55.12 8.57L55.12 5.99ZM60.29 5.34L60.29 5.99L60.88 5.99L60.88 6.46L60.29 6.46L60.29 7.81C60.29 8.1 60.41 8.22 60.64 8.22L60.82 8.22L60.82 8.63L60.52 8.63C59.94 8.63 59.7 8.45 59.7 7.92L59.7 6.46L59.29 6.46L59.29 6.04L59.7 6.04L59.7 5.34L60.29 5.34ZM61.58 4.93L62.11 4.93L62.11 6.4L62.17 6.4C62.28 6.1 62.58 5.93 62.99 5.93C63.58 5.93 63.93 6.28 63.93 6.93L63.93 8.63L63.4 8.63L63.4 7.04C63.4 6.63 63.22 6.4 62.81 6.4C62.4 6.4 62.17 6.69 62.17 7.04L62.17 8.57L61.64 8.57L61.64 4.93L61.58 4.93ZM66.92 7.92C66.81 8.39 66.4 8.69 65.75 8.69C64.99 8.69 64.52 8.16 64.52 7.34C64.52 6.52 64.99 5.93 65.75 5.93C66.51 5.93 66.92 6.46 66.92 7.28L66.92 7.45L65.05 7.45C65.05 7.92 65.34 8.22 65.75 8.22C66.04 8.22 66.28 8.1 66.4 7.92L66.92 7.92ZM65.05 7.04L66.4 7.04C66.4 6.63 66.1 6.34 65.75 6.34C65.34 6.4 65.1 6.63 65.05 7.04Z" fill="#FFFFFF" fill-opacity="1.000000" fill-rule="nonzero"/>
	</g>
</svg>
