<svg width="81.000000" height="24.000000" viewBox="0 0 81 24" fill="none" xmlns="http://www.w3.org/2000/svg" xmlns:xlink="http://www.w3.org/1999/xlink">
	<desc>
			Created with Pixso.
	</desc>
	<defs>
		<clipPath id="clip1_397">
			<rect id="Frame" width="81.000000" height="24.000000" fill="white" fill-opacity="0"/>
		</clipPath>
		<linearGradient x1="13.418638" y1="5.408560" x2="3.473305" y2="15.353893" id="paint_linear_1_402_0" gradientUnits="userSpaceOnUse">
			<stop stop-color="#00A0FF"/>
			<stop offset="0.007000" stop-color="#00A1FF"/>
			<stop offset="0.260000" stop-color="#00BEFF"/>
			<stop offset="0.512000" stop-color="#00D2FF"/>
			<stop offset="0.760000" stop-color="#00DFFF"/>
			<stop offset="1.000000" stop-color="#00E3FF"/>
		</linearGradient>
		<linearGradient x1="20.550007" y1="12.100839" x2="6.211341" y2="12.100839" id="paint_linear_1_403_0" gradientUnits="userSpaceOnUse">
			<stop stop-color="#FFE000"/>
			<stop offset="0.409000" stop-color="#FFBD00"/>
			<stop offset="0.775000" stop-color="#FFA500"/>
			<stop offset="1.000000" stop-color="#FF9C00"/>
		</linearGradient>
		<linearGradient x1="15.211988" y1="13.459298" x2="1.725992" y2="26.945965" id="paint_linear_1_404_0" gradientUnits="userSpaceOnUse">
			<stop stop-color="#FF3A44"/>
			<stop offset="1.000000" stop-color="#C31162"/>
		</linearGradient>
		<linearGradient x1="4.823990" y1="0.352600" x2="10.846655" y2="6.374603" id="paint_linear_1_405_0" gradientUnits="userSpaceOnUse">
			<stop stop-color="#32A071"/>
			<stop offset="0.069000" stop-color="#2DA771"/>
			<stop offset="0.476000" stop-color="#15CF74"/>
			<stop offset="0.801000" stop-color="#06E775"/>
			<stop offset="1.000000" stop-color="#00F076"/>
		</linearGradient>
	</defs>
	<rect id="Frame" width="81.000000" height="24.000000" fill="#FFFFFF" fill-opacity="0"/>
	<g clip-path="url(#clip1_397)">
		<path id="Vector" d="M77.53 23.95L3.46 23.95C3.07 23.95 2.68 23.88 2.32 23.73C1.96 23.58 1.63 23.36 1.35 23.09C1.08 22.81 0.86 22.48 0.71 22.12C0.57 21.76 0.49 21.37 0.5 20.98L0.5 3.21C0.49 2.82 0.56 2.43 0.71 2.07C0.86 1.71 1.08 1.38 1.35 1.1C1.63 0.83 1.96 0.61 2.32 0.46C2.68 0.31 3.07 0.24 3.46 0.24L77.53 0.24C77.92 0.24 78.31 0.31 78.67 0.46C79.03 0.61 79.36 0.83 79.64 1.1C79.91 1.38 80.13 1.71 80.28 2.07C80.43 2.43 80.5 2.82 80.5 3.21L80.5 20.98C80.5 22.58 79.19 23.95 77.53 23.95Z" fill="#000000" fill-opacity="1.000000" fill-rule="nonzero"/>
		<path id="Vector" d="M77.53 0.72C78.9 0.72 80.02 1.84 80.02 3.21L80.02 20.98C80.02 22.35 78.9 23.47 77.53 23.47L3.46 23.47C2.1 23.47 0.97 22.35 0.97 20.98L0.97 3.21C0.97 1.84 2.1 0.72 3.46 0.72L77.53 0.72ZM77.53 0.24L3.46 0.24C3.07 0.24 2.68 0.31 2.32 0.46C1.96 0.61 1.63 0.83 1.35 1.1C1.08 1.38 0.86 1.71 0.71 2.07C0.57 2.43 0.49 2.82 0.5 3.21L0.5 20.98C0.49 21.37 0.57 21.76 0.71 22.12C0.86 22.48 1.08 22.81 1.35 23.09C1.63 23.36 1.96 23.58 2.32 23.73C2.68 23.88 3.07 23.95 3.46 23.95L77.53 23.95C77.92 23.95 78.31 23.88 78.67 23.73C79.03 23.58 79.36 23.36 79.64 23.09C79.91 22.81 80.13 22.48 80.28 22.12C80.42 21.76 80.5 21.37 80.5 20.98L80.5 3.21C80.5 1.61 79.19 0.24 77.53 0.24L77.53 0.24Z" fill="#A6A6A6" fill-opacity="1.000000" fill-rule="nonzero"/>
		<path id="Vector" d="M28.58 6.29C28.58 6.76 28.47 7.18 28.17 7.47C27.81 7.83 27.4 8 26.87 8C26.33 8 25.92 7.83 25.56 7.47C25.21 7.12 25.03 6.7 25.03 6.17C25.03 5.64 25.21 5.22 25.56 4.86C25.92 4.51 26.33 4.33 26.87 4.33C27.1 4.33 27.34 4.39 27.58 4.51C27.81 4.63 27.99 4.75 28.11 4.92L27.81 5.22C27.58 4.92 27.28 4.81 26.87 4.81C26.51 4.81 26.15 4.92 25.92 5.22C25.62 5.46 25.5 5.81 25.5 6.23C25.5 6.64 25.62 7 25.92 7.23C26.21 7.47 26.51 7.65 26.87 7.65C27.28 7.65 27.58 7.53 27.87 7.23C28.05 7.06 28.17 6.82 28.17 6.52L26.87 6.52L26.87 6.11L28.58 6.11L28.58 6.29ZM31.31 4.81L29.71 4.81L29.71 5.93L31.19 5.93L31.19 6.35L29.71 6.35L29.71 7.47L31.31 7.47L31.31 7.95L29.24 7.95L29.24 4.39L31.31 4.39L31.31 4.81ZM33.27 7.95L32.79 7.95L32.79 4.81L31.78 4.81L31.78 4.39L34.27 4.39L34.27 4.81L33.27 4.81L33.27 7.95ZM35.99 7.95L35.99 4.39L36.47 4.39L36.47 7.95L35.99 7.95ZM38.48 7.95L38.01 7.95L38.01 4.81L37 4.81L37 4.39L39.43 4.39L39.43 4.81L38.42 4.81L38.42 7.95L38.48 7.95ZM44.11 7.47C43.75 7.83 43.34 8.01 42.81 8.01C42.27 8.01 41.86 7.83 41.5 7.47C41.15 7.12 40.97 6.7 40.97 6.17C40.97 5.64 41.15 5.22 41.5 4.86C41.86 4.51 42.27 4.33 42.81 4.33C43.34 4.33 43.75 4.51 44.11 4.86C44.47 5.22 44.64 5.64 44.64 6.17C44.64 6.7 44.47 7.12 44.11 7.47ZM41.86 7.18C42.1 7.41 42.45 7.59 42.81 7.59C43.16 7.59 43.52 7.47 43.75 7.18C43.99 6.94 44.17 6.58 44.17 6.17C44.17 5.75 44.05 5.4 43.75 5.16C43.52 4.92 43.16 4.75 42.81 4.75C42.45 4.75 42.1 4.86 41.86 5.16C41.59 5.43 41.44 5.79 41.44 6.17C41.44 6.58 41.56 6.94 41.86 7.18ZM45.3 7.95L45.3 4.39L45.83 4.39L47.55 7.18L47.55 4.39L48.02 4.39L48.02 7.95L47.55 7.95L45.71 5.04L45.71 7.95L45.3 7.95L45.3 7.95Z" fill="#FFFFFF" fill-opacity="1.000000" fill-rule="nonzero"/>
		<path id="Vector" d="M28.17 7.47C27.81 7.83 27.4 8 26.87 8C26.33 8 25.92 7.83 25.56 7.47C25.21 7.12 25.03 6.7 25.03 6.17C25.03 5.64 25.21 5.22 25.56 4.86C25.92 4.51 26.33 4.33 26.87 4.33C27.1 4.33 27.34 4.39 27.58 4.51C27.81 4.63 27.99 4.75 28.11 4.92L27.81 5.22C27.58 4.92 27.28 4.81 26.87 4.81C26.51 4.81 26.15 4.92 25.92 5.22C25.62 5.46 25.5 5.81 25.5 6.23C25.5 6.64 25.62 7 25.92 7.23C26.21 7.47 26.51 7.65 26.87 7.65C27.28 7.65 27.58 7.53 27.87 7.23C28.05 7.06 28.17 6.82 28.17 6.52L26.87 6.52L26.87 6.11L28.58 6.11L28.58 6.29C28.58 6.76 28.47 7.18 28.17 7.47ZM29.71 4.81L29.71 5.93L31.19 5.93L31.19 6.35L29.71 6.35L29.71 7.47L31.31 7.47L31.31 7.95L29.24 7.95L29.24 4.39L31.31 4.39L31.31 4.81L29.71 4.81ZM32.79 7.95L32.79 4.81L31.78 4.81L31.78 4.39L34.27 4.39L34.27 4.81L33.27 4.81L33.27 7.95L32.79 7.95ZM35.99 4.39L36.47 4.39L36.47 7.95L35.99 7.95L35.99 4.39ZM38.01 7.95L38.01 4.81L37 4.81L37 4.39L39.43 4.39L39.43 4.81L38.42 4.81L38.42 7.95L38.48 7.95L38.01 7.95ZM42.81 8.01C42.27 8.01 41.86 7.83 41.5 7.47C41.15 7.12 40.97 6.7 40.97 6.17C40.97 5.64 41.15 5.22 41.5 4.86C41.86 4.51 42.27 4.33 42.81 4.33C43.34 4.33 43.75 4.51 44.11 4.86C44.47 5.22 44.64 5.64 44.64 6.17C44.64 6.7 44.47 7.12 44.11 7.47C43.75 7.83 43.34 8.01 42.81 8.01ZM42.81 7.59C43.16 7.59 43.52 7.47 43.75 7.18C43.99 6.94 44.17 6.58 44.17 6.17C44.17 5.75 44.05 5.4 43.75 5.16C43.52 4.92 43.16 4.75 42.81 4.75C42.45 4.75 42.1 4.86 41.86 5.16C41.59 5.43 41.44 5.79 41.44 6.17C41.44 6.58 41.56 6.94 41.86 7.18C42.1 7.41 42.45 7.59 42.81 7.59ZM45.3 4.39L45.83 4.39L47.55 7.18L47.55 4.39L48.02 4.39L48.02 7.95L47.55 7.95L45.71 5.04L45.71 7.95L45.3 7.95L45.3 7.95L45.3 4.39Z" stroke="#FFFFFF" stroke-opacity="1.000000" stroke-width="0.133333"/>
		<path id="Vector" d="M40.85 13.16C39.43 13.16 38.3 14.23 38.3 15.71C38.3 16.04 38.36 16.38 38.49 16.69C38.62 17 38.81 17.28 39.04 17.52C39.28 17.75 39.56 17.94 39.87 18.07C40.18 18.19 40.52 18.26 40.85 18.26C42.27 18.26 43.4 17.19 43.4 15.71C43.4 14.17 42.27 13.16 40.85 13.16ZM40.85 17.19C40.08 17.19 39.43 16.54 39.43 15.65C39.43 14.76 40.08 14.11 40.85 14.11C41.62 14.11 42.27 14.7 42.27 15.65C42.27 16.54 41.62 17.19 40.85 17.19ZM35.34 13.16C33.92 13.16 32.79 14.23 32.79 15.71C32.79 16.04 32.85 16.38 32.98 16.69C33.11 17 33.29 17.28 33.53 17.52C33.77 17.75 34.05 17.94 34.36 18.07C34.67 18.19 35 18.26 35.34 18.26C36.76 18.26 37.89 17.19 37.89 15.71C37.89 14.17 36.76 13.16 35.34 13.16ZM35.34 17.19C34.57 17.19 33.92 16.54 33.92 15.65C33.92 14.76 34.57 14.11 35.34 14.11C36.11 14.11 36.76 14.7 36.76 15.65C36.76 16.54 36.11 17.19 35.34 17.19ZM28.76 13.93L28.76 15L31.31 15C31.25 15.59 31.01 16.06 30.72 16.36C30.36 16.72 29.77 17.13 28.76 17.13C27.16 17.13 25.98 15.89 25.98 14.29C25.98 12.69 27.22 11.44 28.76 11.44C29.59 11.44 30.24 11.8 30.72 12.21L31.49 11.44C30.84 10.85 30.01 10.37 28.82 10.37C26.69 10.37 24.85 12.15 24.85 14.29C24.85 16.42 26.69 18.2 28.82 18.2C30.01 18.2 30.84 17.84 31.55 17.07C32.26 16.36 32.5 15.35 32.5 14.58C32.5 14.35 32.5 14.11 32.44 13.93L28.76 13.93ZM55.67 14.76C55.43 14.17 54.84 13.16 53.53 13.16C52.23 13.16 51.16 14.17 51.16 15.71C51.16 17.13 52.23 18.26 53.65 18.26C54.78 18.26 55.49 17.54 55.72 17.13L54.9 16.54C54.6 16.95 54.24 17.25 53.65 17.25C53.06 17.25 52.7 17.01 52.41 16.48L55.78 15.06L55.67 14.76ZM52.23 15.59C52.23 14.64 53 14.11 53.53 14.11C53.95 14.11 54.36 14.35 54.48 14.64L52.23 15.59ZM49.44 18.02L50.57 18.02L50.57 10.61L49.44 10.61L49.44 18.02L49.44 18.02ZM47.67 13.69C47.37 13.4 46.9 13.1 46.3 13.1C45.06 13.1 43.87 14.23 43.87 15.65C43.87 17.07 45 18.14 46.3 18.14C46.9 18.14 47.37 17.84 47.61 17.54L47.67 17.54L47.67 17.9C47.67 18.85 47.13 19.38 46.3 19.38C45.65 19.38 45.18 18.91 45.06 18.49L44.11 18.91C44.41 19.56 45.12 20.39 46.36 20.39C47.67 20.39 48.73 19.62 48.73 17.78L48.73 13.28L47.67 13.28L47.67 13.69ZM46.36 17.19C45.59 17.19 44.94 16.54 44.94 15.65C44.94 14.76 45.59 14.11 46.36 14.11C47.13 14.11 47.72 14.76 47.72 15.65C47.72 16.54 47.13 17.19 46.36 17.19ZM60.82 10.61L58.15 10.61L58.15 18.02L59.28 18.02L59.28 15.23L60.82 15.23C62.07 15.23 63.25 14.35 63.25 12.92C63.25 11.5 62.07 10.61 60.82 10.61ZM60.88 14.17L59.28 14.17L59.28 11.62L60.88 11.62C61.71 11.62 62.18 12.33 62.18 12.86C62.12 13.52 61.65 14.17 60.88 14.17ZM67.69 13.1C66.87 13.1 66.04 13.46 65.74 14.23L66.75 14.64C66.98 14.23 67.34 14.11 67.75 14.11C68.35 14.11 68.88 14.46 68.94 15.06L68.94 15.12C68.76 15 68.29 14.82 67.81 14.82C66.75 14.82 65.68 15.41 65.68 16.48C65.68 17.49 66.57 18.14 67.52 18.14C68.29 18.14 68.64 17.78 68.94 17.43L69 17.43L69 18.02L70.07 18.02L70.07 15.17C69.95 13.87 68.94 13.1 67.69 13.1ZM67.58 17.19C67.22 17.19 66.69 17.01 66.69 16.54C66.69 15.95 67.34 15.77 67.87 15.77C68.35 15.77 68.58 15.89 68.88 16C68.76 16.72 68.17 17.19 67.58 17.19ZM73.8 13.28L72.55 16.48L72.5 16.48L71.19 13.28L70.01 13.28L71.96 17.78L70.84 20.27L71.96 20.27L74.98 13.28L73.8 13.28ZM63.84 18.02L64.97 18.02L64.97 10.61L63.84 10.61L63.84 18.02Z" fill="#FFFFFF" fill-opacity="1.000000" fill-rule="nonzero"/>
		<path id="Vector" d="M6.66 4.69C6.48 4.87 6.36 5.16 6.36 5.52L6.36 18.61C6.36 18.97 6.48 19.27 6.66 19.44L6.72 19.5L14.06 12.15L14.06 12.04L6.66 4.69Z" fill="url(#paint_linear_1_402_0)" fill-opacity="1.000000" fill-rule="nonzero"/>
		<path id="Vector" d="M16.5 14.64L14.07 12.21L14.07 12.04L16.5 9.61L16.55 9.67L19.46 11.32C20.29 11.8 20.29 12.57 19.46 13.04L16.5 14.64Z" fill="url(#paint_linear_1_403_0)" fill-opacity="1.000000" fill-rule="nonzero"/>
		<path id="Vector" d="M16.55 14.58L14.07 12.09L6.66 19.5C6.95 19.8 7.37 19.8 7.9 19.56L16.56 14.58L16.55 14.58Z" fill="url(#paint_linear_1_404_0)" fill-opacity="1.000000" fill-rule="nonzero"/>
		<path id="Vector" d="M16.55 9.61L7.9 4.69C7.37 4.39 6.95 4.45 6.66 4.75L14.07 12.1L16.55 9.61Z" fill="url(#paint_linear_1_405_0)" fill-opacity="1.000000" fill-rule="nonzero"/>
		<g opacity="0.200000">
			<path id="Vector" d="M16.5 14.52L7.9 19.38C7.43 19.68 7.01 19.62 6.72 19.38L6.66 19.44L6.72 19.5C7.01 19.74 7.43 19.8 7.9 19.5L16.5 14.52L16.5 14.52Z" fill="#000000" fill-opacity="1.000000" fill-rule="nonzero"/>
		</g>
		<g opacity="0.120000">
			<path id="Vector" d="M6.66 19.38C6.48 19.21 6.42 18.91 6.42 18.55L6.42 18.61C6.42 18.97 6.54 19.27 6.72 19.44L6.72 19.38L6.66 19.38ZM19.46 12.86L16.5 14.52L16.55 14.58L19.46 12.92C19.87 12.69 20.05 12.39 20.05 12.09C20.05 12.39 19.81 12.63 19.46 12.86L19.46 12.86Z" fill="#000000" fill-opacity="1.000000" fill-rule="nonzero"/>
		</g>
		<g opacity="0.250000">
			<path id="Vector" d="M7.9 4.75L19.46 11.32C19.81 11.56 20.05 11.8 20.05 12.09C20.05 11.8 19.87 11.5 19.46 11.27L7.9 4.69C7.07 4.21 6.42 4.63 6.42 5.58L6.42 5.64C6.42 4.69 7.07 4.27 7.9 4.75L7.9 4.75Z" fill="#FFFFFF" fill-opacity="1.000000" fill-rule="nonzero"/>
		</g>
	</g>
</svg>
