<svg width="16.000000" height="16.000000" viewBox="0 0 16 16" fill="none" xmlns="http://www.w3.org/2000/svg" xmlns:xlink="http://www.w3.org/1999/xlink">
	<desc>
			Created with Pixso.
	</desc>
	<defs>
		<clipPath id="clip1_389">
			<rect id="Frame" width="16.000000" height="16.000000" fill="white" fill-opacity="0"/>
		</clipPath>
	</defs>
	<rect id="Frame" width="16.000000" height="16.000000" fill="#FFFFFF" fill-opacity="0"/>
	<g clip-path="url(#clip1_389)">
		<path id="Vector" d="M3.33 2.85C3.33 3.05 3.29 3.26 3.21 3.45C3.13 3.65 3.02 3.82 2.87 3.97C2.73 4.12 2.55 4.23 2.36 4.31C2.17 4.39 1.96 4.44 1.75 4.44C1.55 4.44 1.34 4.39 1.15 4.31C0.96 4.23 0.78 4.12 0.64 3.97C0.49 3.82 0.37 3.65 0.29 3.45C0.21 3.26 0.17 3.05 0.18 2.85C0.17 2.43 0.34 2.02 0.63 1.72C0.93 1.43 1.33 1.26 1.75 1.26C1.96 1.26 2.17 1.3 2.36 1.38C2.55 1.46 2.73 1.58 2.87 1.72C3.02 1.87 3.13 2.05 3.21 2.24C3.29 2.43 3.33 2.64 3.33 2.85ZM3.34 5.71L0.16 5.71L0.16 15.89L3.34 15.89L3.34 5.71ZM8.42 5.71L5.26 5.71L5.26 15.89L8.42 15.89L8.42 10.54C8.42 7.57 12.26 7.33 12.26 10.54L12.26 15.89L15.43 15.89L15.43 9.44C15.43 4.43 9.75 4.61 8.42 7.08L8.42 5.71Z" fill="#000000" fill-opacity="1.000000" fill-rule="nonzero"/>
	</g>
</svg>
