<svg width="16.000000" height="16.000000" viewBox="0 0 16 16" fill="none" xmlns="http://www.w3.org/2000/svg" xmlns:xlink="http://www.w3.org/1999/xlink">
	<desc>
			Created with Pixso.
	</desc>
	<defs>
		<clipPath id="clip1_387">
			<rect id="Frame" width="16.000000" height="16.000000" fill="white" fill-opacity="0"/>
		</clipPath>
	</defs>
	<rect id="Frame" width="16.000000" height="16.000000" fill="#FFFFFF" fill-opacity="0"/>
	<g clip-path="url(#clip1_387)">
		<path id="Vector" d="M8 1.74C10.03 1.74 10.28 1.75 11.08 1.79C13.15 1.88 14.12 2.87 14.21 4.92C14.25 5.72 14.25 5.97 14.25 8C14.25 10.04 14.25 10.28 14.21 11.09C14.12 13.14 13.15 14.12 11.08 14.22C10.28 14.26 10.03 14.26 8 14.26C5.96 14.26 5.71 14.26 4.91 14.22C2.84 14.12 1.87 13.14 1.78 11.09C1.74 10.28 1.74 10.04 1.74 8C1.74 5.96 1.74 5.72 1.78 4.92C1.88 2.87 2.84 1.88 4.91 1.79C5.72 1.75 5.96 1.74 8 1.74ZM8 0.37C5.92 0.37 5.66 0.38 4.85 0.41C2.07 0.54 0.53 2.08 0.41 4.86C0.37 5.67 0.36 5.93 0.36 8C0.36 10.08 0.37 10.34 0.41 11.15C0.53 13.92 2.07 15.46 4.85 15.59C5.66 15.63 5.92 15.64 8 15.64C10.07 15.64 10.33 15.63 11.14 15.59C13.91 15.46 15.46 13.93 15.58 11.15C15.62 10.34 15.63 10.08 15.63 8C15.63 5.93 15.62 5.67 15.58 4.86C15.46 2.09 13.92 0.54 11.14 0.41C10.33 0.38 10.07 0.37 8 0.37ZM8 4.08C6.96 4.08 5.96 4.5 5.22 5.23C4.49 5.97 4.07 6.96 4.07 8C4.07 9.04 4.49 10.04 5.22 10.77C5.96 11.51 6.96 11.92 8 11.92C9.03 11.92 10.03 11.51 10.77 10.77C11.5 10.04 11.92 9.04 11.92 8C11.92 6.96 11.5 5.97 10.77 5.23C10.03 4.5 9.03 4.08 8 4.08ZM8 10.55C7.66 10.55 7.32 10.49 7.01 10.37C6.69 10.24 6.41 10.06 6.17 9.82C5.93 9.58 5.73 9.3 5.6 8.99C5.47 8.68 5.41 8.34 5.41 8C5.41 7.67 5.47 7.33 5.6 7.02C5.73 6.71 5.93 6.43 6.17 6.19C6.41 5.95 6.69 5.77 7.01 5.64C7.32 5.51 7.66 5.45 8 5.46C8.67 5.46 9.32 5.73 9.79 6.2C10.27 6.68 10.54 7.33 10.54 8C10.54 8.68 10.27 9.33 9.79 9.8C9.32 10.28 8.67 10.55 8 10.55ZM12.07 3.01C11.95 3.01 11.83 3.03 11.71 3.07C11.6 3.12 11.49 3.19 11.41 3.27C11.32 3.36 11.25 3.46 11.2 3.57C11.15 3.68 11.13 3.81 11.13 3.93C11.13 4.05 11.15 4.17 11.2 4.29C11.25 4.4 11.32 4.5 11.41 4.59C11.49 4.67 11.6 4.74 11.71 4.78C11.83 4.83 11.95 4.85 12.07 4.84C12.31 4.84 12.54 4.74 12.7 4.57C12.87 4.4 12.96 4.17 12.96 3.93C12.96 3.69 12.87 3.46 12.7 3.29C12.54 3.12 12.31 3.02 12.07 3.01Z" fill="#000000" fill-opacity="1.000000" fill-rule="nonzero"/>
	</g>
</svg>
