<svg width="78.000000" height="20.000000" viewBox="0 0 78 20" fill="none" xmlns="http://www.w3.org/2000/svg" xmlns:xlink="http://www.w3.org/1999/xlink">
	<desc>
			Created with Pixso.
	</desc>
	<defs>
		<clipPath id="clip1_285">
			<rect id="Frame" width="78.000000" height="20.000000" fill="white" fill-opacity="0"/>
		</clipPath>
	</defs>
	<rect id="Frame" width="78.000000" height="20.000000" fill="#FFFFFF" fill-opacity="0"/>
	<g clip-path="url(#clip1_285)">
		<path id="Vector" d="M52.31 4.13C50.96 4.13 49.92 4.61 48.95 5.61L48.95 4.36L46.31 4.36L46.31 16.66L49.16 16.66L49.16 9.53C49.16 7.9 50.13 6.86 51.6 6.86C51.87 6.86 52.11 6.9 52.27 6.93L54.25 4.33C53.48 4.19 52.81 4.13 52.31 4.13ZM76.89 4.36L73.6 4.36L70.57 8.37L67.53 4.36L64.24 4.36L68.88 10.56L64.24 16.66L67.6 16.66L70.55 12.77L73.5 16.66L76.89 16.66L72.22 10.57L76.89 4.36ZM17.03 1.6C16.06 2.9 15.83 3.33 14.89 3.33L0.87 3.33L0.87 20L6.37 20C7.61 20 8.82 19.4 9.59 18.4C10.59 17.06 10.73 16.66 11.7 16.66L25.75 16.66L25.75 0L20.22 0C18.98 0 17.77 0.6 17.03 1.6L17.03 1.6ZM21.39 12.36L15.52 12.36C14.25 12.36 13.08 12.9 12.3 13.93C11.3 15.26 11.1 15.66 10.16 15.66L5.2 15.66L5.2 7.66L11.06 7.66C12.34 7.66 13.51 7.06 14.28 6.06C15.29 4.76 15.56 4.36 16.46 4.36L21.39 4.36L21.39 12.36ZM42.45 8.26C43.69 7.56 44.56 6.33 44.56 4.69C44.56 2.3 42.72 0 40.04 0L31.99 0L31.99 16.66L40.04 16.66C42.95 16.66 44.96 14.6 44.96 12C44.96 10.46 44.26 9.13 42.45 8.26ZM34.84 2.6L39.8 2.6C41.04 2.6 41.78 3.76 41.78 4.8C41.78 6.06 40.67 6.93 39.63 6.93L34.84 6.93L34.84 2.6ZM39.63 14.06L34.84 14.06L34.84 9.53L39.8 9.53C41.07 9.53 42.11 10.63 42.11 11.76C42.11 13.03 40.81 14.06 39.63 14.06Z" fill="#000000" fill-opacity="1.000000" fill-rule="nonzero"/>
		<path id="Vector" d="M61.39 13.13C60.93 13.86 60.02 14.3 59.01 14.3C57.44 14.3 56.13 13.23 56.13 11.6L64.65 11.6C64.78 11.1 64.81 10.86 64.81 10.43C64.81 6.7 62.5 4.13 59.01 4.13C55.59 4.13 53.18 6.56 53.18 10.53C53.18 14.4 55.49 16.9 59.08 16.9C61.6 16.9 63.81 15.66 64.45 13.13L61.39 13.13ZM59.01 6.73C60.59 6.73 61.8 7.73 61.76 9.23L56.16 9.23C56.16 7.76 57.44 6.73 59.01 6.73Z" fill="#000000" fill-opacity="1.000000" fill-rule="nonzero"/>
	</g>
</svg>
