<svg width="16.000000" height="16.000000" viewBox="0 0 16 16" fill="none" xmlns="http://www.w3.org/2000/svg" xmlns:xlink="http://www.w3.org/1999/xlink">
	<desc>
			Created with Pixso.
	</desc>
	<defs>
		<clipPath id="clip1_391">
			<rect id="Frame" width="16.000000" height="16.000000" fill="white" fill-opacity="0"/>
		</clipPath>
	</defs>
	<rect id="Frame" width="16.000000" height="16.000000" fill="#FFFFFF" fill-opacity="0"/>
	<g clip-path="url(#clip1_391)">
		<path id="Vector" d="M16 4.63C15.42 4.89 14.82 5.05 14.2 5.13C14.85 4.74 15.34 4.12 15.57 3.39C14.96 3.76 14.29 4.02 13.58 4.15C13.29 3.84 12.94 3.59 12.54 3.42C12.15 3.25 11.73 3.16 11.3 3.16C9.28 3.16 7.79 5.05 8.25 7.01C7 6.95 5.78 6.62 4.67 6.06C3.56 5.5 2.58 4.7 1.79 3.74C1.39 4.43 1.27 5.24 1.45 6.02C1.63 6.8 2.1 7.48 2.76 7.92C2.26 7.9 1.78 7.77 1.34 7.53C1.31 8.98 2.35 10.34 3.85 10.64C3.39 10.77 2.91 10.78 2.44 10.69C2.64 11.32 3.03 11.86 3.55 12.25C4.08 12.64 4.71 12.86 5.36 12.87C4.05 13.9 2.38 14.36 0.73 14.17C2.16 15.09 3.83 15.57 5.53 15.57C11.34 15.57 14.63 10.66 14.43 6.25C15.04 5.81 15.57 5.26 16 4.63L16 4.63Z" fill="#000000" fill-opacity="1.000000" fill-rule="nonzero"/>
	</g>
</svg>
