<svg width="16.000000" height="16.000000" viewBox="0 0 16 16" fill="none" xmlns="http://www.w3.org/2000/svg" xmlns:xlink="http://www.w3.org/1999/xlink">
	<desc>
			Created with Pixso.
	</desc>
	<defs>
		<clipPath id="clip1_385">
			<rect id="Frame" width="16.000000" height="16.000000" fill="white" fill-opacity="0"/>
		</clipPath>
	</defs>
	<rect id="Frame" width="16.000000" height="16.000000" fill="#FFFFFF" fill-opacity="0"/>
	<g clip-path="url(#clip1_385)">
		<path id="Vector" d="M3.52 0.49L4.43 0.49L5.06 2.85L5.65 0.49L6.57 0.49L5.51 4L5.51 6.38L4.6 6.38L4.6 4L3.52 0.49ZM7.71 2C7 2 6.53 2.47 6.53 3.17L6.53 5.3C6.53 6.07 6.93 6.47 7.71 6.47C8.36 6.47 8.88 6.03 8.88 5.3L8.88 3.17C8.88 2.49 8.37 2 7.71 2ZM8.05 5.26C8.05 5.5 7.93 5.68 7.71 5.68C7.49 5.68 7.36 5.49 7.36 5.26L7.36 3.24C7.36 3.01 7.47 2.83 7.7 2.83C7.94 2.83 8.05 3 8.05 3.24L8.05 5.27L8.05 5.26ZM11.06 2.04L11.06 5.34C10.96 5.46 10.74 5.66 10.58 5.66C10.41 5.66 10.37 5.55 10.37 5.37L10.37 2.04L9.56 2.04L9.56 5.67C9.56 6.1 9.69 6.45 10.13 6.45C10.37 6.45 10.71 6.32 11.06 5.91L11.06 6.39L11.87 6.39L11.87 2.04L11.06 2.04L11.06 2.04ZM12.46 10.86C12.18 10.86 12.12 11.06 12.12 11.34L12.12 11.76L12.8 11.76L12.8 11.34C12.8 11.06 12.74 10.86 12.46 10.86ZM9.47 10.88C9.41 10.91 9.35 10.96 9.31 11.01L9.31 13.59C9.36 13.65 9.42 13.69 9.49 13.73C9.62 13.8 9.8 13.8 9.89 13.69C9.93 13.63 9.95 13.54 9.95 13.4L9.95 11.27C9.95 11.13 9.93 11.02 9.87 10.95C9.78 10.83 9.6 10.81 9.47 10.88ZM12.54 7.58C10.88 7.46 5.5 7.46 3.85 7.58C2.06 7.7 1.84 8.78 1.83 11.63C1.84 14.47 2.05 15.56 3.85 15.68C5.5 15.79 10.88 15.79 12.54 15.68C14.33 15.56 14.54 14.47 14.56 11.63C14.54 8.79 14.33 7.7 12.54 7.58ZM4.7 14.37L3.83 14.37L3.83 9.58L2.94 9.58L2.94 8.76L5.6 8.76L5.6 9.58L4.7 9.58L4.7 14.37L4.7 14.37ZM7.78 14.37L7.01 14.37L7.01 13.92C6.87 14.09 6.72 14.21 6.57 14.3C6.16 14.54 5.59 14.54 5.59 13.69L5.59 10.24L6.36 10.24L6.36 13.41C6.36 13.58 6.4 13.69 6.56 13.69C6.71 13.69 6.92 13.49 7.01 13.38L7.01 10.23L7.78 10.23L7.78 14.37L7.78 14.37ZM10.75 13.52C10.75 14.03 10.55 14.43 10.04 14.43C9.76 14.43 9.52 14.32 9.31 14.06L9.31 14.37L8.53 14.37L8.53 8.76L9.31 8.76L9.31 10.57C9.48 10.36 9.72 10.18 10 10.18C10.56 10.18 10.75 10.66 10.75 11.22L10.75 13.52L10.75 13.52ZM13.59 12.4L12.12 12.4L12.12 13.18C12.12 13.49 12.14 13.76 12.45 13.76C12.78 13.76 12.8 13.54 12.8 13.18L12.8 12.9L13.59 12.9L13.59 13.21C13.59 14 13.25 14.49 12.44 14.49C11.7 14.49 11.33 13.95 11.33 13.21L11.33 11.35C11.33 10.63 11.8 10.13 12.49 10.13C13.23 10.13 13.59 10.6 13.59 11.35L13.59 12.4L13.59 12.4Z" fill="#000000" fill-opacity="1.000000" fill-rule="nonzero"/>
	</g>
</svg>
